HIERARCHY
ROOT Hips
{
 OFFSET 0.000000 0.000000 0.000000
 CHANNELS 6 Xposition Yposition Zposition Yrotation Xrotation Zrotation
 JOINT Chest
 {
  OFFSET 0.000000 9.585900 0.002600
  CHANNELS 3 Yrotation Xrotation Zrotation
  JOINT Chest2
  {
   OFFSET 0.000000 9.601200 -0.005300
   CHANNELS 3 Yrotation Xrotation Zrotation
   JOINT Chest3
   {
    OFFSET 0.000000 9.561800 0.000000
    CHANNELS 3 Yrotation Xrotation Zrotation
    JOINT Chest4
    {
     OFFSET 0.000000 9.552100 0.000000
     CHANNELS 3 Yrotation Xrotation Zrotation
     JOINT Neck
     {
      OFFSET 0.000000 14.453000 0.000000
      CHANNELS 3 Yrotation Xrotation Zrotation
      JOINT Head
      {
       OFFSET 0.000000 8.936500 -0.011300
       CHANNELS 3 Yrotation Xrotation Zrotation
       End Site
       {
        OFFSET 0.000000 17.073600 -0.006000
       }
      }
     }
     JOINT RightCollar
     {
      OFFSET -2.921100 9.558500 0.000000
      CHANNELS 3 Yrotation Xrotation Zrotation
      JOINT RightShoulder
      {
       OFFSET -13.519700 0.000000 0.000000
       CHANNELS 3 Yrotation Xrotation Zrotation
       JOINT RightElbow
       {
        OFFSET 0.000000 -29.696600 0.000000
        CHANNELS 3 Yrotation Xrotation Zrotation
        JOINT RightWrist
        {
         OFFSET 0.000000 -24.004700 0.000000
         CHANNELS 3 Yrotation Xrotation Zrotation
         End Site
         {
          OFFSET 0.000000 -17.728500 0.000000
         }
        }
       }
      }
     }
     JOINT LeftCollar
     {
      OFFSET 2.921100 9.558500 0.000000
      CHANNELS 3 Yrotation Xrotation Zrotation
      JOINT LeftShoulder
      {
       OFFSET 13.519700 0.000000 0.000000
       CHANNELS 3 Yrotation Xrotation Zrotation
       JOINT LeftElbow
       {
        OFFSET 0.000000 -29.696600 0.000000
        CHANNELS 3 Yrotation Xrotation Zrotation
        JOINT LeftWrist
        {
         OFFSET 0.000000 -24.004700 0.000000
         CHANNELS 3 Yrotation Xrotation Zrotation
         End Site
         {
          OFFSET 0.000000 -17.728500 0.000000
         }
        }
       }
      }
     }
    }
   }
  }
 }
 JOINT RightHip
 {
  OFFSET -7.771700 -0.012900 -0.001300
  CHANNELS 3 Yrotation Xrotation Zrotation
  JOINT RightKnee
  {
   OFFSET 0.000000 -40.869800 0.001200
   CHANNELS 3 Yrotation Xrotation Zrotation
   JOINT RightAnkle
   {
    OFFSET 0.000000 -39.717900 0.002100
    CHANNELS 3 Yrotation Xrotation Zrotation
    JOINT RightToe
    {
     OFFSET 0.000000 -4.965400 11.033500
     CHANNELS 3 Yrotation Xrotation Zrotation
     End Site
     {
      OFFSET 0.000000 -1.423100 5.872300
     }
    }
   }
  }
 }
 JOINT LeftHip
 {
  OFFSET 7.771700 -0.012900 -0.001300
  CHANNELS 3 Yrotation Xrotation Zrotation
  JOINT LeftKnee
  {
   OFFSET 0.000000 -40.869800 0.001200
   CHANNELS 3 Yrotation Xrotation Zrotation
   JOINT LeftAnkle
   {
    OFFSET 0.000000 -39.717900 0.002100
    CHANNELS 3 Yrotation Xrotation Zrotation
    JOINT LeftToe
    {
     OFFSET 0.000000 -4.965400 11.033500
     CHANNELS 3 Yrotation Xrotation Zrotation
     End Site
     {
      OFFSET 0.000000 -1.423100 5.872300
     }
    }
   }
  }
 }
}
MOTION
Frames: 9
Frame Time: 0.008333
-29.270013 46.743653 23.044181 177.795689 -30.115096 -3.476192 0.692642 17.934670 1.138635 -0.046323 2.032689 0.110706 -0.074855 3.368674 0.182733 -0.236099 15.860479 0.841385 -0.575808 15.608404 -2.945772 0.042626 -6.768022 -5.300216 0.281554 1.044523 -1.995717 6.230433 -6.751628 -15.084091 -54.142252 -63.670598 102.100507 -1.160651 2.923179 -17.715293 0.019450 0.005235 1.905226 -4.498980 -3.297369 14.131424 81.964131 -72.581696 -120.097515 -0.949723 7.244412 7.856687 -1.996105 -57.179972 -9.116485 -146.850727 78.713681 -138.649164 -4.974003 -15.105345 -5.461157 -0.957937 -1.655372 -0.418510 -2.118954 -58.521919 10.650451 -110.732811 80.987424 -115.251301 4.495863 -7.133907 5.149473 1.223661 0.409698 0.429986
-29.245427 46.746434 23.019895 177.815272 -30.141371 -3.547043 0.631006 17.953011 1.174663 -0.026054 2.035142 0.113146 -0.122159 3.358217 0.178014 -0.283542 15.849149 0.833660 -0.541032 15.637304 -2.909611 0.046766 -6.726234 -5.226646 0.357684 1.074423 -2.012884 6.156033 -6.742846 -15.074613 -54.166568 -63.664533 102.114000 -1.157900 2.910898 -17.718718 0.015256 0.011614 1.901478 -4.424098 -3.284314 14.118416 81.974047 -72.607942 -120.201539 -0.922437 7.243464 7.940979 -2.143278 -57.161191 -9.080469 -147.192541 78.842811 -138.952926 -5.132845 -14.845853 -5.527736 -0.786642 -1.593473 -0.382077 -2.269003 -58.490072 10.798432 -110.951548 80.958898 -115.453488 4.611902 -7.190771 5.165655 1.112680 0.411794 0.391809
-29.213646 46.754456 22.987546 177.880838 -30.196630 -3.624531 0.504161 17.998554 1.183669 0.013829 2.042150 0.118847 -0.169252 3.346626 0.173060 -0.247881 15.856551 0.832987 -0.584525 15.653143 -2.854209 0.044851 -6.671819 -5.149195 0.356364 1.085131 -2.014362 6.077596 -6.740952 -15.061662 -54.189040 -63.668369 102.125949 -1.151622 2.929411 -17.660875 -0.046213 0.005993 1.910416 -4.458807 -3.290140 14.129397 81.909710 -72.604152 -120.141191 -0.924829 7.238710 7.876724 -2.297291 -57.107134 -9.069463 -147.620269 78.945960 -139.355548 -5.263176 -14.670306 -5.564812 -0.648582 -1.489655 -0.355423 -2.452833 -58.422103 10.935044 -111.149044 80.938296 -115.648455 4.692540 -7.243924 5.165606 1.034593 0.415488 0.365401
-29.176796 46.768246 22.946190 178.035644 -30.280823 -3.712040 0.269310 18.073888 1.146232 0.035483 2.045538 0.121763 -0.177545 3.341747 0.172331 -0.296449 15.843727 0.827016 -0.555048 15.696236 -2.817098 0.035945 -6.605109 -5.069839 0.293392 1.109603 -2.005539 6.140931 -6.739595 -15.075691 -54.175078 -63.683585 102.132860 -1.145264 2.925791 -17.660234 -0.032057 0.024634 1.901197 -4.481223 -3.291936 14.143956 81.819059 -72.585477 -120.028392 -0.911741 7.216773 7.851008 -2.473231 -57.020131 -9.128974 -148.160290 79.044977 -139.881791 -5.436121 -14.572425 -5.591591 -0.473476 -1.347183 -0.311465 -2.692052 -58.315448 11.042838 -111.317509 80.922661 -115.837036 4.810958 -7.275232 5.173632 0.915171 0.394099 0.329029
-29.132281 46.782860 22.905312 178.171271 -30.336615 -3.773767 0.067932 18.122877 1.101873 -0.036275 2.029900 0.112005 -0.111917 3.351917 0.178642 -0.345663 15.829413 0.820720 -0.528950 15.745920 -2.780603 0.018654 -6.527729 -4.988252 0.340486 1.143408 -2.017322 6.097247 -6.751776 -15.065542 -54.149692 -63.699324 102.119375 -1.139338 2.924152 -17.643215 -0.017840 0.045898 1.891361 -4.474608 -3.284386 14.153452 81.732958 -72.568562 -119.948372 -0.897974 7.191465 7.912633 -2.610252 -56.965124 -9.211734 -148.614334 79.126542 -140.347268 -5.538728 -14.529102 -5.572669 -0.343731 -1.168213 -0.293854 -2.836536 -58.243192 11.087941 -111.403169 80.897411 -115.922875 4.944536 -7.273270 5.208034 0.784706 0.348187 0.277541
-29.067764 46.801822 22.861768 178.196914 -30.401927 -3.845429 -0.011767 18.175791 1.128489 -0.058968 2.022700 0.109086 -0.095707 3.352847 0.179711 -0.365992 15.821257 0.815732 -0.533532 15.793562 -2.736554 -0.007444 -6.440553 -4.903500 0.300192 1.164166 -2.010996 6.124152 -6.765206 -15.066028 -54.113235 -63.713449 102.084987 -1.133469 2.927165 -17.597229 -0.028953 0.058736 1.888411 -4.471804 -3.273299 14.160847 81.641732 -72.551804 -119.861491 -0.886525 7.163930 7.967840 -2.741076 -56.901478 -9.170981 -149.266023 79.237791 -140.974883 -5.685942 -14.481919 -5.561613 -0.217046 -1.019636 -0.283588 -2.987018 -58.161369 11.256747 -111.676702 80.878784 -116.183092 5.033475 -7.317196 5.208758 0.671955 0.327566 0.234807
-28.999742 46.821833 22.819456 178.262560 -30.442215 -3.919333 -0.129278 18.206727 1.137963 -0.061536 2.019862 0.108671 -0.099995 3.348388 0.179039 -0.387297 15.811739 0.810773 -0.542239 15.846345 -2.691098 -0.041816 -6.344100 -4.814604 0.260751 1.185688 -2.002694 6.151983 -6.782593 -15.065318 -54.059632 -63.725855 102.035097 -1.126797 2.927166 -17.553870 0.014634 0.081983 1.877226 -4.521675 -3.269819 14.176492 81.563524 -72.539286 -119.785190 -0.871527 7.151968 7.916207 -2.861919 -56.860484 -9.144140 -149.811536 79.335863 -141.504106 -5.872058 -14.453961 -5.528189 -0.051624 -0.868038 -0.255771 -3.116284 -58.107178 11.366227 -111.958300 80.861977 -116.433963 5.157228 -7.340290 5.235387 0.514565 0.286359 0.159242
-28.938965 46.840369 22.781855 178.317399 -30.441614 -3.924252 -0.241163 18.199935 1.088842 -0.044314 2.021611 0.111121 -0.141544 3.335604 0.176549 -0.408149 15.801139 0.806406 -0.554944 15.903056 -2.644964 -0.083984 -6.240466 -4.722870 0.253773 1.211769 -1.999509 6.146667 -6.804768 -15.058780 -53.995640 -63.734420 101.976159 -1.120969 2.923941 -17.519088 -0.016257 0.088545 1.878550 -4.445923 -3.243296 14.163949 81.511818 -72.545885 -119.779157 -0.869264 7.146021 7.905896 -2.907316 -56.874275 -9.252341 -150.500852 79.441065 -142.202286 -5.919288 -14.362423 -5.467940 0.000939 -0.774280 -0.271429 -3.137258 -58.095841 11.354195 -112.044407 80.840833 -116.500229 5.251884 -7.342515 5.255043 0.407774 0.247024 0.126069
-28.877631 46.858979 22.748319 178.345043 -30.419264 -3.917243 -0.351179 18.169200 1.038037 -0.065743 2.014311 0.108268 -0.126083 3.334513 0.178418 -0.427007 15.790145 0.804036 -0.520111 15.947846 -2.638131 -0.185354 -6.115395 -4.580079 0.251530 1.236803 -2.001729 6.165195 -6.819348 -15.060528 -53.959095 -63.734140 101.919832 -1.119583 2.911637 -17.492721 -0.042754 0.093276 1.875378 -4.450067 -3.219024 14.174121 81.512137 -72.522695 -119.700855 -0.890402 7.153764 7.876141 -2.929665 -56.916074 -9.344338 -151.124762 79.537626 -142.838716 -5.946262 -14.236051 -5.408132 0.040604 -0.706419 -0.279437 -3.139824 -58.107070 11.343414 -112.126530 80.820969 -116.562607 5.400566 -7.325258 5.278450 0.262628 0.188460 0.060552
